<svg id="Layer_1" data-name="Layer 1" xmlns="http://www.w3.org/2000/svg" viewBox="0 0 136 80"><title>ego</title><path d="M83.43,18.74a101.51,101.51,0,0,1,17.91-2.65L97.45,13A145.09,145.09,0,0,0,82,16.05,8.2,8.2,0,0,1,83.43,18.74Z"/><path d="M45.43,29.11l-1.1.52.17,3.15.93-.45Z"/><path d="M59.88,23c-4.13,1.57-8.12,3.24-11.94,5,0,0-.91,2.43-.63,3.47h0c4.22-2,8.67-3.93,13.35-5.71q6.48-2.46,12.61-4.28a6.8,6.8,0,0,0,1.12-3.35C69.66,19.47,64.8,21.1,59.88,23Z"/><path d="M84,44.52c.06.09,0,.31-.26.65-.62.7-1,.92-2.27,2.49-.42.51-.93,1.13-1.56,1.94l-1.45,1.91a28.68,28.68,0,0,0-2.33,3.4,10.94,10.94,0,0,0-.93,2,5.6,5.6,0,0,0-.17.54,6.69,6.69,0,0,0-.29,1.84,2.47,2.47,0,0,0,.58,1.74,4.31,4.31,0,0,0,2.38.83,13,13,0,0,0,5.18-1.26,122.18,122.18,0,0,0,10.25-7.3c1.29-1.1,2.19-1.91,2.69-2.43s.74-.91.74-1.16a.64.64,0,0,0-.2-.49.66.66,0,0,0-.49-.2c-.27,0-.84.4-1.72,1.21-.71.65-1.3,1.18-1.79,1.57-1.64,1.27-7.78,5.67-8.79,6.23a5.39,5.39,0,0,1-2.47.85.32.32,0,0,1-.27-.13.86.86,0,0,1-.09-.46,7.13,7.13,0,0,1,1.49-3.25l.68-.92.77-1s1.12-1.45,2.67-3.7a12.26,12.26,0,0,0,1.52-3c.06-.19.12-.36.17-.54a7.1,7.1,0,0,0,.29-1.85,2.45,2.45,0,0,0-.58-1.73,2.07,2.07,0,0,0-1.61-.64,9.48,9.48,0,0,0-3.94,1.42,33.06,33.06,0,0,0-5.43,3.81c-1.29,1.09-2.19,1.91-2.69,2.43s-.75.91-.75,1.15a.68.68,0,0,0,.7.7c.26,0,.84-.41,1.72-1.21.7-.66,1.3-1.18,1.79-1.57,1.63-1.27,3-2.12,4-2.75C81.5,45.67,83.67,44.08,84,44.52Z"/><path d="M111.37,51a47.35,47.35,0,0,1-7.58,7.14,12.45,12.45,0,0,1-6,2.7,3.86,3.86,0,0,1-2.88-.83,3.62,3.62,0,0,1-1.22-2.65,8.79,8.79,0,0,1,1.57-5.19,24,24,0,0,1,5.1-5.61,25.63,25.63,0,0,1,5.23-3.37,13.82,13.82,0,0,1,4.81-1.43,4,4,0,0,1,2.8.72,3,3,0,0,1,1.2,2.29,5.13,5.13,0,0,1-.44,2.26,14,14,0,0,1-1.6,2.78,2.54,2.54,0,0,0,1.1,1.08,3.11,3.11,0,0,0,1.59.27,5.53,5.53,0,0,0,2.91-1.38,6.7,6.7,0,0,1,2-1.32.37.37,0,0,1,.32.11.7.7,0,0,1,.13.4c0,.46-.57,1.15-1.81,2.08a6.6,6.6,0,0,1-3.48,1.5,4.46,4.46,0,0,1-2-.28A5.22,5.22,0,0,1,111.37,51Zm-14.59,7.1a1.08,1.08,0,0,0,.36.85,1.52,1.52,0,0,0,1,.18A8.62,8.62,0,0,0,102,57.51a40,40,0,0,0,5.4-4.52,29.79,29.79,0,0,0,4-4.74,6.27,6.27,0,0,0,1.34-3.39,1.37,1.37,0,0,0-.46-1,1.52,1.52,0,0,0-1.1-.3,7.26,7.26,0,0,0-3.09,1.33,25.45,25.45,0,0,0-4,3.3,50.1,50.1,0,0,0-5.41,6.07C97.36,56.08,96.72,57.37,96.78,58.14Z"/><polygon points="104.46 10.68 110.09 2.16 109.19 12.12 117.11 18 107.35 17.22 101.27 25.02 102.58 15.8 94.26 9.18 104.46 10.68"/><path d="M79.19,14.46c.91-4.06,0-6.57-1.4-7.73a6.52,6.52,0,0,0-5.18-1.29,15.31,15.31,0,0,0-10.54,7.23c-11.32,2.58-16,10-17.89,15.13A10.45,10.45,0,0,0,46,38.51c3.55,3.88,8.42,3.4,12.43,1.93a23.38,23.38,0,0,0,10-7.26,78.49,78.49,0,0,0,6.87-9.69,50.59,50.59,0,0,1-4.5,12.25C70.21,37,69.58,38.29,69,39.58H63.23v1.3h5.11c-2.86,5.72-9.79,17.49-19.26,19.37-5.83,1.16-8.46,0-9.62-1.49a8.89,8.89,0,0,0,2.23.34A14.31,14.31,0,0,0,53,54.6c2.45-2.72,3.2-4.85,2.19-8.12A6.38,6.38,0,0,0,51,42.57l-.2-.07c-5.9-2-14.21,4.59-15.18,11.8a5.19,5.19,0,0,1-.55-1,7.53,7.53,0,0,1,3.38-9.75c1.31-.62.69-1.48.69-1.48a7.61,7.61,0,0,0-2.41,1.17c-4.59,3.28-4.41,9.45-1.19,13a1.27,1.27,0,0,1,0,.2c.31,3.71,3,7.22,6.59,7.75,5.87.88,10.94-.91,15.25-3.36C64.18,57,74.86,47.76,80.92,33.75,85.68,22.71,82.92,17.21,79.19,14.46Zm-5-6.13s3.87.39,3.38,5.11a14.62,14.62,0,0,0-2-.84,16.65,16.65,0,0,0-5.86-.84c-1.41,0-2.74.13-4,.28A10.16,10.16,0,0,1,74.17,8.33ZM67.7,31.14a21.61,21.61,0,0,1-10.87,7.27c-3.64,1-7.66,1-9.76-2.84A8.73,8.73,0,0,1,46.5,29C47.64,25,51,18.1,60.82,14.83c-2.34,4.59-2.46,6-2.46,6S58,22.4,60,21.88a29.16,29.16,0,0,1,4.22-8c.57-.12,1.13-.25,1.74-.35,4.17-.68,6.72,0,8.16,1.62a5.06,5.06,0,0,1,.51,5.8A68.46,68.46,0,0,1,67.7,31.14Zm-29,24c1.47-9,6.58-10.87,9.6-11.17a3,3,0,0,1,3.19,2.17,7.22,7.22,0,0,1-2,7.31A11,11,0,0,1,43,56.61a10.65,10.65,0,0,1-4.37-.22A4.8,4.8,0,0,1,38.67,55.13Z"/><path d="M112.56,48.74l.2-.89-1.63,1.82Z"/><path d="M133,20.57c-2.19-5.78-10.11-8.59-22.19-8.51l6.77,5.16,0,0,0,0c4.46,1.18,6.68,3.18,7.8,6.14,2,5.24-2,12-10.58,19.25a6.06,6.06,0,0,1,.39,4.36C129.44,37.06,135.77,27.91,133,20.57Z"/><path d="M92.53,56.66a124.68,124.68,0,0,1-17.14,7.86c-31.66,12-60.63,13.07-64.69,2.36-3.25-8.55,10.31-22,32-33.17a6.45,6.45,0,0,1-.23-3.16C16.36,43.48-.25,59.54,3.59,69.67,8.23,81.91,41,80.83,76.69,67.27A154.12,154.12,0,0,0,93,59.92,8,8,0,0,1,92.53,56.66Z"/></svg>